<svg width="29" height="18" viewBox="0 0 29 18" fill="none" xmlns="http://www.w3.org/2000/svg">
<path d="M15.1242 12.7742C15.2051 11.7471 14.9178 10.7248 14.3138 9.88999C13.7097 9.05521 12.8282 8.46244 11.827 8.21767C12.5791 7.92727 13.2211 7.4085 13.6628 6.73435C14.1045 6.0602 14.3236 5.2646 14.2892 4.4595C14.2892 0.873993 11.6116 0 8.51809 0H0V18H8.75696C12.0403 18 15.1242 16.4311 15.1242 12.7742ZM3.97113 3.07283H7.69699C9.12912 3.07283 10.4194 3.47359 10.4194 5.12991C10.4194 6.65834 9.41597 7.27333 7.99771 7.27333H3.97113V3.07283ZM3.97113 14.9432V9.98591H8.29842C10.0462 9.98591 11.152 10.7117 11.152 12.5557C11.152 14.374 9.83185 14.9421 8.21631 14.9421L3.97113 14.9432Z" fill="#7A7A7A"/>
<path d="M22.7022 17.9816C24.0612 18.0903 25.4151 17.7182 26.5235 16.9313C27.6319 16.1445 28.423 14.9938 28.7562 13.6837H25.6222C25.374 14.2068 24.9745 14.645 24.4745 14.9426C23.9745 15.2403 23.3965 15.3841 22.8139 15.3556C22.3772 15.3972 21.9367 15.3408 21.525 15.1905C21.1133 15.0402 20.7411 14.7999 20.436 14.4874C20.131 14.175 19.9009 13.7984 19.7628 13.3858C19.6248 12.9731 19.5824 12.5349 19.6388 12.1038H28.9692C28.9851 11.8948 28.9998 11.6722 28.9998 11.4475C28.9998 7.66793 26.7621 4.51636 22.7043 4.51636C21.8124 4.49749 20.9261 4.66108 20.1009 4.99691C19.2757 5.33273 18.5292 5.83358 17.9081 6.46815C17.287 7.10272 16.8046 7.85739 16.4911 8.68502C16.1776 9.51264 16.0397 10.3954 16.086 11.2782C16.0839 15.2522 18.619 17.9816 22.7022 17.9816ZM22.5967 7.16218C22.969 7.1354 23.3427 7.18703 23.6933 7.31367C24.044 7.4403 24.3636 7.63907 24.6312 7.8969C24.8988 8.15473 25.1082 8.46578 25.2457 8.80958C25.3833 9.15337 25.4458 9.52213 25.4292 9.89159H19.644C19.646 9.51687 19.7252 9.1465 19.8769 8.80323C20.0285 8.45996 20.2494 8.15103 20.5259 7.89542C20.8024 7.63981 21.1288 7.44291 21.4849 7.31682C21.841 7.19073 22.2193 7.1381 22.5967 7.16218Z" fill="#7A7A7A"/>
<path d="M19.1048 1H26.169V3H19.1048V1Z" fill="#7A7A7A"/>
</svg>
