<svg width="10" height="18" viewBox="0 0 10 18" fill="none" xmlns="http://www.w3.org/2000/svg">
<path d="M9.62258 0.00653039H7.22414C6.62275 -0.0265353 6.02106 0.0662414 5.45967 0.278601C4.89828 0.49096 4.39026 0.817961 3.96988 1.23754C3.54949 1.65712 3.22653 2.15952 3.02277 2.71083C2.81902 3.26215 2.73922 3.84955 2.78875 4.43342V6.47831H0.377396C0.277305 6.47831 0.181312 6.51698 0.110537 6.58581C0.0397612 6.65465 0 6.74801 0 6.84536V9.80306C0 9.90041 0.0397612 9.99377 0.110537 10.0626C0.181312 10.1314 0.277305 10.1701 0.377396 10.1701H2.78875V17.6329C2.78875 17.7303 2.82851 17.8237 2.89929 17.8925C2.97006 17.9613 3.06606 18 3.16615 18H6.31243C6.41252 18 6.50851 17.9613 6.57929 17.8925C6.65006 17.8237 6.68983 17.7303 6.68983 17.6329V10.1663H9.50937C9.55893 10.1663 9.608 10.1568 9.65379 10.1383C9.69958 10.1199 9.74118 10.0928 9.77622 10.0587C9.81127 10.0247 9.83907 9.9842 9.85803 9.93966C9.877 9.89513 9.88676 9.8474 9.88676 9.7992V6.8415C9.88676 6.74415 9.847 6.65079 9.77622 6.58195C9.70545 6.51311 9.60946 6.47444 9.50937 6.47444H6.68883V4.73962C6.68883 3.90795 6.89243 3.4839 8.00674 3.4839H9.62258C9.72268 3.4839 9.81867 3.44523 9.88944 3.37639C9.96022 3.30756 9.99998 3.2142 9.99998 3.11685V0.37745C10.0005 0.328923 9.99113 0.280777 9.9724 0.235797C9.95367 0.190817 9.92595 0.149896 9.89086 0.115401C9.85576 0.0809064 9.81398 0.0535232 9.76793 0.0348358C9.72188 0.0161484 9.67248 0.00652771 9.62258 0.00653039Z" fill="#7A7A7A"/>
</svg>
