<svg width="38" height="38" viewBox="0 0 38 38" fill="none" xmlns="http://www.w3.org/2000/svg">
<rect width="38" height="38" rx="8" fill="#1C1C1C"/>
<path d="M19.6028 23.7741C19.6809 22.747 19.4035 21.7247 18.8203 20.8899C18.2371 20.0551 17.386 19.4624 16.4193 19.2176C17.1454 18.9272 17.7653 18.4084 18.1918 17.7343C18.6182 17.0602 18.8298 16.2646 18.7966 15.4595C18.7966 11.874 16.2113 11 13.2244 11H5V28.9999H13.4551C16.6252 28.9999 19.6028 27.4309 19.6028 23.7741ZM8.83422 14.0728H12.4316C13.8144 14.0728 15.0602 14.4736 15.0602 16.1299C15.0602 17.6583 14.0914 18.2733 12.722 18.2733H8.83422V14.0728ZM8.83422 25.943V20.9858H13.0123C14.6998 20.9858 15.7675 21.7117 15.7675 23.5556C15.7675 25.3739 14.4929 25.942 12.9331 25.942L8.83422 25.943Z" fill="white"/>
<path d="M26.9194 28.9815C28.2316 29.0902 29.5389 28.7181 30.609 27.9312C31.6792 27.1444 32.443 25.9937 32.7648 24.6837H29.7387C29.4991 25.2067 29.1134 25.6449 28.6307 25.9426C28.1479 26.2402 27.5899 26.384 27.0274 26.3556C26.6057 26.3972 26.1803 26.3407 25.7828 26.1904C25.3853 26.0401 25.026 25.7998 24.7314 25.4873C24.4369 25.1749 24.2147 24.7984 24.0814 24.3857C23.9482 23.973 23.9072 23.5348 23.9616 23.1037H32.9704C32.9857 22.8947 33 22.6721 33 22.4475C33 18.6679 30.8394 15.5164 26.9215 15.5164C26.0603 15.4975 25.2046 15.6611 24.4078 15.9969C23.6111 16.3327 22.8903 16.8336 22.2906 17.4681C21.691 18.1027 21.2252 18.8574 20.9225 19.685C20.6198 20.5126 20.4867 21.3954 20.5314 22.2782C20.5294 26.2521 22.9771 28.9815 26.9194 28.9815ZM26.8176 18.1622C27.177 18.1354 27.5379 18.187 27.8764 18.3136C28.215 18.4403 28.5236 18.6391 28.7819 18.8969C29.0403 19.1547 29.2425 19.4657 29.3753 19.8095C29.5081 20.1533 29.5685 20.5221 29.5524 20.8915H23.9667C23.9686 20.5168 24.0451 20.1465 24.1915 19.8032C24.3379 19.4599 24.5512 19.151 24.8182 18.8954C25.0852 18.6398 25.4003 18.4429 25.7441 18.3168C26.0879 18.1907 26.4532 18.1381 26.8176 18.1622Z" fill="white"/>
<path d="M23.4463 12H30.267V14H23.4463V12Z" fill="white"/>
</svg>
