<svg width="38" height="38" viewBox="0 0 38 38" fill="none" xmlns="http://www.w3.org/2000/svg">
<rect width="38" height="38" rx="8" fill="#1C1C1C"/>
<path d="M18.9786 7C12.3512 7.01318 6.96786 12.55 7.00014 19.3151C7.02813 24.7817 10.5625 29.4001 15.4249 30.9469C15.6982 31.0348 15.9759 30.8217 15.9716 30.5295C15.9608 29.8462 15.9501 29.165 15.9393 28.4817C15.9393 28.3103 15.8037 28.1807 15.6358 28.1917C15.3452 28.2269 15.0546 28.2642 14.7641 28.2994C14.0107 28.3873 13.4059 28.2664 13.0894 28.1236C13.0464 28.1038 13.0055 28.084 12.9646 28.0621C12.7601 27.9544 12.5729 27.8138 12.4028 27.6556C12.3813 27.6358 12.3576 27.6138 12.3361 27.5941C12.1962 27.4688 12.0175 27.2777 11.869 27.003C11.7829 26.8426 11.7248 26.6888 11.686 26.5504C11.6215 26.3197 11.5139 26.1044 11.3718 25.9132C11.318 25.8385 11.2642 25.7638 11.2147 25.6869C11.0252 25.3859 10.7691 25.1311 10.4699 24.9443L10.4204 24.9135C10.2913 24.8322 10.1729 24.7312 10.0825 24.6059C9.98131 24.4697 9.93611 24.3466 9.977 24.2719C10.0287 24.1753 10.2052 24.1797 10.556 24.1929C10.8121 24.2016 10.9779 24.206 11.1781 24.2873C11.3331 24.351 11.4364 24.4367 11.6365 24.6081C11.9142 24.8454 12.1617 25.0541 12.3899 25.4013C12.5793 25.6869 12.5363 25.7331 12.7171 25.9506C12.9194 26.1967 13.1304 26.3307 13.266 26.4142C13.6771 26.6691 14.0516 26.7394 14.1463 26.757C14.5187 26.8207 14.7985 26.7745 15.145 26.7174C15.5841 26.6449 15.8037 26.6097 15.9285 26.4779C16.1911 26.2011 15.9909 25.9023 16.2578 25.4079C16.5527 24.863 16.7207 24.9157 16.6668 24.7993C16.6238 24.7048 16.4258 24.74 16.133 24.7224C15.9006 24.7092 15.6702 24.5927 15.1773 24.4983C14.975 24.4587 14.2475 24.3049 13.5329 23.8589C13.4102 23.782 12.9861 23.5073 12.5621 23.0284C12.5621 23.0284 12.1704 22.5845 11.6947 21.6881C11.6904 21.6793 11.686 21.6727 11.686 21.6727C11.6839 21.6661 11.6796 21.6595 11.6774 21.6529C11.4794 21.13 11.2599 20.383 11.1824 19.4646C11.1071 18.5615 11.1974 17.8013 11.3029 17.2586C11.3739 16.9246 11.5311 16.4061 11.9034 15.8832C12.0627 15.659 12.2306 15.4767 12.3856 15.3339C12.4523 15.2723 12.4782 15.1779 12.4502 15.09C12.3382 14.745 12.2263 14.2616 12.2177 13.6772C12.2091 13.0708 12.3167 12.5654 12.4265 12.2029C12.4674 12.0711 12.5901 11.9832 12.7257 11.9898C13.1002 12.0074 13.5737 12.0711 14.0946 12.2446C14.9448 12.5281 15.5476 12.9763 15.9027 13.2905C15.9285 13.3125 15.963 13.3191 15.9931 13.3103C16.7335 13.0708 17.8421 12.8093 19.1981 12.8467C20.298 12.8774 21.2128 13.095 21.8715 13.3103C21.9016 13.3213 21.936 13.3125 21.9597 13.2905C22.2804 12.9851 22.8508 12.5259 23.6752 12.2403C24.181 12.0645 24.6417 12.003 24.999 11.9876C25.1712 11.981 25.2551 12.1677 25.3003 12.2183C25.3111 12.2315 25.324 12.2446 25.3348 12.2622C25.6124 12.6335 25.5995 13.4223 25.5995 13.4223C25.5888 13.8947 25.5802 14.176 25.4876 14.5605C25.4123 14.8725 25.3089 15.1295 25.423 15.4108C25.4854 15.5646 25.5823 15.6546 25.6339 15.7052C26.3335 16.3951 26.6133 17.8408 26.6628 18.6582C26.6628 18.6626 26.6628 18.667 26.6628 18.667C26.7102 19.1921 26.7855 20.7543 25.8169 22.2462C25.1669 23.2481 24.3317 23.7798 24.0002 23.9731C23.5374 24.2412 23.0252 24.5378 22.2933 24.6279C21.7531 24.696 21.2365 24.6345 21.1827 24.8191C21.1504 24.9267 21.3183 25.0146 21.5271 25.3464C21.6605 25.5573 21.7208 25.7287 21.8047 25.9616C21.9317 26.3153 22.0157 26.8009 21.9877 28.6355C21.9791 29.1321 21.9726 29.3804 21.964 29.6286C21.9532 29.9582 21.9425 30.2658 21.9296 30.5515C21.9167 30.8459 22.1943 31.0656 22.472 30.9821C27.4054 29.4617 31 24.7861 31 19.2536C31 12.4797 25.6146 6.99122 18.9764 7.0044L18.9786 7Z" fill="white"/>
</svg>
