<svg width="38" height="38" viewBox="0 0 38 38" fill="none" xmlns="http://www.w3.org/2000/svg">
<rect width="38" height="38" rx="8" fill="#1C1C1C"/>
<path d="M30.945 14.0564C30.9256 13.0613 30.7369 12.0768 30.387 11.1451C30.0775 10.3472 29.6048 9.62269 28.9992 9.01793C28.3936 8.41316 27.6683 7.94144 26.8699 7.63296C25.9378 7.28356 24.953 7.09493 23.9577 7.0751C22.6727 7.01475 22.2649 7 19.0067 7C15.7485 7 15.338 7.01475 14.057 7.06973C13.0617 7.08917 12.0769 7.27782 11.1449 7.62759C10.3426 7.92774 9.61594 8.40015 9.0161 9.01151C8.40636 9.61238 7.93449 10.3385 7.63313 11.1397C7.28138 12.0712 7.09042 13.0556 7.06841 14.051C7.01341 15.3357 7 15.7434 7 19.002C7 22.2607 7.01341 22.6683 7.06841 23.949C7.08823 24.9441 7.27739 25.9286 7.62777 26.8603C7.93674 27.6578 8.40877 28.3821 9.01369 28.9869C9.61861 29.5916 10.3431 30.0635 11.1408 30.3724C12.073 30.7218 13.0577 30.9104 14.053 30.9303C15.3327 30.9866 15.7418 31 19 31C22.2582 31 22.6673 30.9866 23.947 30.9303C24.9424 30.9109 25.9271 30.7223 26.8592 30.3724C27.6571 30.064 28.3819 29.5922 28.9868 28.9874C29.5918 28.3826 30.0637 27.6581 30.3722 26.8603C30.7216 25.9284 30.9103 24.944 30.9302 23.949C30.9866 22.6697 31 22.2607 31 19.0034C31 15.746 31 15.337 30.9396 14.0577L30.945 14.0564ZM28.7827 23.8551C28.7749 24.6159 28.6351 25.3695 28.3695 26.0825C28.1695 26.6005 27.8632 27.0709 27.4705 27.4635C27.0778 27.8561 26.6073 28.1622 26.0892 28.3622C25.3759 28.6272 24.6221 28.767 23.8612 28.7753C22.5949 28.8316 22.2153 28.845 19.0121 28.845C15.8089 28.845 15.4239 28.8316 14.163 28.7753C13.402 28.7676 12.6481 28.6278 11.9349 28.3622C11.4137 28.1706 10.9423 27.864 10.556 27.4651C10.1585 27.0779 9.85239 26.607 9.65996 26.0866C9.39492 25.3734 9.25515 24.6199 9.24681 23.8591C9.19048 22.5932 9.17706 22.2137 9.17706 19.0114C9.17706 15.8091 9.19048 15.4242 9.24681 14.1637C9.2545 13.4029 9.3943 12.6492 9.65996 11.9362C9.84999 11.415 10.1564 10.944 10.556 10.559C10.944 10.1612 11.416 9.8551 11.9376 9.66324C12.651 9.39833 13.4047 9.2586 14.1657 9.25021C15.4319 9.19389 15.8115 9.18048 19.0148 9.18048C22.218 9.18048 22.6029 9.19523 23.8638 9.25021C24.6248 9.25803 25.3787 9.39778 26.0919 9.66324C26.6131 9.85438 27.0844 10.1606 27.4708 10.559C27.8683 10.9462 28.1744 11.4172 28.3669 11.9376C28.6319 12.6507 28.7716 13.4043 28.78 14.165C28.8364 15.4309 28.8498 15.8104 28.8498 19.0127C28.8498 22.2151 28.835 22.5905 28.78 23.8565L28.7827 23.8551Z" fill="white"/>
<path d="M19.0058 12.8374C17.7854 12.8374 16.5925 13.1992 15.5777 13.877C14.563 14.5548 13.7722 15.5182 13.3051 16.6454C12.8381 17.7726 12.7159 19.0129 12.954 20.2095C13.1921 21.4061 13.7798 22.5052 14.6427 23.3679C15.5057 24.2306 16.6051 24.8181 17.802 25.0561C18.999 25.2942 20.2396 25.172 21.3671 24.7051C22.4946 24.2382 23.4583 23.4476 24.1363 22.4331C24.8143 21.4187 25.1762 20.2261 25.1762 19.006C25.1762 17.37 24.5261 15.801 23.3689 14.6441C22.2118 13.4873 20.6423 12.8374 19.0058 12.8374V12.8374ZM19.0058 23.0022C18.2147 23.0022 17.4413 22.7677 16.7835 22.3283C16.1257 21.8889 15.613 21.2644 15.3103 20.5337C15.0075 19.803 14.9283 18.9989 15.0827 18.2232C15.237 17.4475 15.618 16.735 16.1774 16.1757C16.7368 15.6165 17.4495 15.2356 18.2254 15.0813C19.0014 14.927 19.8056 15.0062 20.5365 15.3089C21.2674 15.6115 21.8922 16.1241 22.3317 16.7817C22.7712 17.4393 23.0058 18.2125 23.0058 19.0034C23.0055 20.0638 22.5839 21.0807 21.8338 21.8306C21.0838 22.5805 20.0666 23.0019 19.0058 23.0022V23.0022Z" fill="white"/>
<path d="M26.8602 12.5934C26.8602 12.878 26.7758 13.1562 26.6177 13.3929C26.4596 13.6295 26.2349 13.8139 25.972 13.9228C25.7091 14.0317 25.4197 14.0602 25.1406 14.0047C24.8615 13.9492 24.6051 13.8121 24.4039 13.6109C24.2026 13.4097 24.0656 13.1533 24.0101 12.8742C23.9545 12.595 23.9831 12.3057 24.092 12.0428C24.2009 11.7799 24.3853 11.5552 24.6219 11.397C24.8586 11.2389 25.1368 11.1545 25.4213 11.1545C25.803 11.1545 26.169 11.3061 26.4388 11.576C26.7087 11.8458 26.8602 12.2118 26.8602 12.5934V12.5934Z" fill="white"/>
</svg>
