<svg width="38" height="38" viewBox="0 0 38 38" fill="none" xmlns="http://www.w3.org/2000/svg">
<rect width="38" height="38" rx="8" fill="#1C1C1C"/>
<path d="M12.0526 15.5789H7V30.7368H12.0526V15.5789Z" fill="white"/>
<path d="M29.3548 16.7912C28.8101 16.2078 28.1442 15.7485 27.4033 15.4451C26.6623 15.1416 25.8637 15.0012 25.0628 15.0336C24.4582 15.0267 23.8558 15.1077 23.2749 15.2741C22.7836 15.4118 22.3229 15.6403 21.917 15.9476C21.3199 16.3895 20.8139 16.9411 20.4265 17.5724V15.391H15.2935L15.3095 16.135C15.3202 16.6309 15.3256 18.1587 15.3256 20.7183C15.3256 23.2779 15.3153 26.6174 15.2948 30.7366H20.4305V22.1664C20.4154 21.7417 20.4734 21.3176 20.6019 20.9123C20.8129 20.393 21.154 19.9357 21.5929 19.5838C22.0618 19.2197 22.6451 19.0315 23.2401 19.0524C23.6212 19.0244 24.0031 19.0944 24.3489 19.2557C24.6947 19.4169 24.9927 19.664 25.2141 19.973C25.6762 20.7404 25.8963 21.6273 25.8462 22.5198V30.726H30.9819V21.9312C31.1127 20.0756 30.5315 18.2396 29.3548 16.7912Z" fill="white"/>
<path d="M9.54001 8.00316C8.86464 7.97118 8.20482 8.22826 7.70354 8.71869C7.47429 8.94856 7.29303 9.22866 7.17185 9.5403C7.05067 9.85193 6.99235 10.1879 7.0008 10.5259C6.99307 10.8608 7.04977 11.1938 7.16731 11.5038C7.28485 11.8138 7.46067 12.094 7.68362 12.3267C7.92363 12.5718 8.20681 12.7621 8.51628 12.8864C8.82576 13.0106 9.15519 13.0662 9.48496 13.0498H9.5119C10.1925 13.0826 10.8575 12.8226 11.3613 12.3267C11.5894 12.0979 11.7691 11.8186 11.8881 11.5078C12.0072 11.197 12.0628 10.862 12.0511 10.5259C12.0558 10.189 11.9964 9.85468 11.8767 9.54361C11.7571 9.23255 11.5796 8.95135 11.3554 8.71742C11.1119 8.4739 10.8259 8.28531 10.5142 8.16267C10.2025 8.04003 9.87132 7.98581 9.54001 8.00316Z" fill="white"/>
</svg>
