<svg width="18" height="18" viewBox="0 0 18 18" fill="none" xmlns="http://www.w3.org/2000/svg">
<path d="M17.9588 5.29229C17.9442 4.54599 17.8027 3.80761 17.5402 3.10879C17.3081 2.51039 16.9536 1.96702 16.4994 1.51345C16.0452 1.05987 15.5012 0.706084 14.9024 0.474717C14.2033 0.212671 13.4648 0.0711953 12.7183 0.0563224C11.7545 0.0110633 11.4487 0 9.00503 0C6.56137 0 6.25352 0.0110633 5.29276 0.0522994C4.54625 0.0668801 3.80767 0.208365 3.10865 0.470694C2.50695 0.695808 1.96195 1.05011 1.51207 1.50864C1.05477 1.95929 0.700864 2.5039 0.474849 3.10477C0.211031 3.80338 0.0678144 4.54171 0.0513078 5.28827C0.0100604 6.25178 0 6.55753 0 9.00152C0 11.4455 0.0100604 11.7513 0.0513078 12.7118C0.0661756 13.4581 0.208042 14.1965 0.470825 14.8953C0.702554 15.4934 1.05658 16.0366 1.51027 16.4902C1.96396 16.9437 2.50733 17.2977 3.10563 17.5293C3.80474 17.7914 4.54326 17.9328 5.28974 17.9477C6.2495 17.99 6.55634 18 9 18C11.4437 18 11.7505 17.99 12.7103 17.9477C13.4568 17.9332 14.1954 17.7917 14.8944 17.5293C15.4929 17.298 16.0364 16.9442 16.4901 16.4906C16.9439 16.037 17.2978 15.4936 17.5292 14.8953C17.7912 14.1963 17.9327 13.458 17.9477 12.7118C17.9899 11.7523 18 11.4455 18 9.00253C18 6.55955 18 6.25279 17.9547 5.2933L17.9588 5.29229ZM16.337 12.6414C16.3312 13.2119 16.2263 13.7772 16.0272 14.3119C15.8771 14.7004 15.6474 15.0532 15.3529 15.3476C15.0584 15.6421 14.7055 15.8717 14.3169 16.0217C13.7819 16.2204 13.2166 16.3252 12.6459 16.3315C11.6962 16.3737 11.4115 16.3838 9.00905 16.3838C6.60664 16.3838 6.31791 16.3737 5.37223 16.3315C4.80149 16.3257 4.23608 16.2209 3.70121 16.0217C3.31026 15.878 2.95676 15.648 2.667 15.3489C2.36887 15.0585 2.13929 14.7052 1.99497 14.3149C1.79619 13.7801 1.69136 13.2149 1.68511 12.6444C1.64286 11.6949 1.6328 11.4103 1.6328 9.00856C1.6328 6.60682 1.64286 6.31816 1.68511 5.37275C1.69088 4.80216 1.79572 4.23691 1.99497 3.70219C2.13749 3.31128 2.36734 2.95801 2.667 2.66928C2.95797 2.37088 3.31202 2.14132 3.70322 1.99743C4.23823 1.79875 4.80355 1.69395 5.37425 1.68766C6.32394 1.64542 6.60865 1.63536 9.01107 1.63536C11.4135 1.63536 11.7022 1.64642 12.6479 1.68766C13.2186 1.69353 13.784 1.79834 14.3189 1.99743C14.7098 2.14079 15.0633 2.37044 15.3531 2.66928C15.6512 2.95967 15.8808 3.31289 16.0252 3.7032C16.2239 4.23805 16.3287 4.80322 16.335 5.37376C16.3773 6.32319 16.3873 6.60782 16.3873 9.00957C16.3873 11.4113 16.3763 11.6929 16.335 12.6424L16.337 12.6414Z" fill="#7A7A7A"/>
<path d="M9.00448 4.37793C8.08919 4.37793 7.19446 4.64927 6.43343 5.15763C5.6724 5.66599 5.07925 6.38855 4.72898 7.23393C4.37872 8.07931 4.28707 9.00955 4.46563 9.907C4.64419 10.8044 5.08495 11.6288 5.73216 12.2758C6.37936 12.9229 7.20394 13.3635 8.10164 13.542C8.99934 13.7205 9.92983 13.6289 10.7754 13.2787C11.6211 12.9285 12.3438 12.3356 12.8523 11.5747C13.3608 10.8139 13.6322 9.91945 13.6322 9.00442C13.6322 7.7774 13.1447 6.60062 12.2768 5.73299C11.4089 4.86536 10.2318 4.37793 9.00448 4.37793ZM9.00448 12.0016C8.41113 12.0016 7.83112 11.8257 7.33777 11.4961C6.84442 11.1666 6.4599 10.6982 6.23284 10.1501C6.00578 9.60211 5.94637 8.99907 6.06212 8.41728C6.17788 7.8355 6.4636 7.30111 6.88316 6.88167C7.30272 6.46223 7.83726 6.17659 8.41921 6.06086C9.00115 5.94514 9.60434 6.00453 10.1525 6.23153C10.7007 6.45853 11.1692 6.84294 11.4989 7.33615C11.8285 7.82936 12.0045 8.40923 12.0045 9.00241C12.0042 9.79775 11.6881 10.5604 11.1255 11.1228C10.563 11.6852 9.80004 12.0013 9.00448 12.0016Z" fill="#7A7A7A"/>
<path d="M14.8953 4.19491C14.8953 4.40835 14.832 4.61699 14.7134 4.79446C14.5948 4.97193 14.4263 5.11025 14.2291 5.19193C14.0319 5.27361 13.8149 5.29498 13.6056 5.25334C13.3962 5.2117 13.204 5.10892 13.053 4.95799C12.9021 4.80707 12.7993 4.61478 12.7577 4.40544C12.716 4.1961 12.7374 3.97911 12.8191 3.78192C12.9008 3.58473 13.0391 3.41618 13.2166 3.2976C13.394 3.17902 13.6027 3.11572 13.8161 3.11572C14.1023 3.11572 14.3768 3.22942 14.5792 3.43181C14.7816 3.63419 14.8953 3.90869 14.8953 4.19491Z" fill="#7A7A7A"/>
</svg>
