<svg width="19" height="18" viewBox="0 0 19 18" fill="none" xmlns="http://www.w3.org/2000/svg">
<path d="M4 6H0V18H4V6Z" fill="#7A7A7A"/>
<path d="M17.6974 6.95977C17.2661 6.49788 16.739 6.13428 16.1524 5.89405C15.5658 5.65383 14.9336 5.54268 14.2995 5.5683C13.8209 5.5628 13.344 5.62693 12.8841 5.75867C12.4952 5.86769 12.1304 6.0486 11.8091 6.2919C11.3364 6.64174 10.9358 7.07842 10.6291 7.57819V5.85123H6.56546L6.57818 6.44021C6.58666 6.83286 6.59089 8.04235 6.59089 10.0687C6.59089 12.0951 6.58277 14.7388 6.56651 17.9999H10.6323V11.2151C10.6204 10.8789 10.6662 10.5431 10.768 10.2223C10.935 9.81113 11.205 9.44911 11.5526 9.17051C11.9237 8.88226 12.3855 8.73328 12.8566 8.74983C13.1583 8.72765 13.4606 8.78307 13.7344 8.91076C14.0081 9.03844 14.244 9.23406 14.4193 9.47867C14.7851 10.0862 14.9594 10.7883 14.9197 11.4949V17.9915H18.9855V11.0289C19.089 9.5599 18.6289 8.10636 17.6974 6.95977Z" fill="#7A7A7A"/>
<path d="M2.01084 0.0025026C1.47617 -0.0228135 0.953814 0.180707 0.556965 0.568961C0.37548 0.750944 0.231981 0.972691 0.136046 1.2194C0.0401114 1.46611 -0.00605257 1.73211 0.000635537 1.99965C-0.00548829 2.2648 0.0393993 2.52845 0.132453 2.77386C0.225507 3.01928 0.364698 3.24112 0.541203 3.42532C0.731209 3.61933 0.955392 3.77001 1.20039 3.86836C1.44539 3.96671 1.7062 4.01073 1.96726 3.99779H1.98859C2.52742 4.02376 3.05382 3.81793 3.45266 3.42532C3.63325 3.2442 3.77553 3.02306 3.86978 2.777C3.96404 2.53095 4.00805 2.26578 3.99879 1.99965C4.00247 1.73296 3.95549 1.46829 3.86075 1.22203C3.76602 0.975766 3.62554 0.75315 3.44803 0.567959C3.25524 0.375173 3.02885 0.225872 2.78208 0.128782C2.53532 0.0316933 2.27313 -0.0112361 2.01084 0.0025026Z" fill="#7A7A7A"/>
</svg>
