<svg width="414" height="234" viewBox="0 0 414 234" fill="none" xmlns="http://www.w3.org/2000/svg" xmlns:xlink="http://www.w3.org/1999/xlink">
<path d="M302.272,174.822C292.766,174.822 285.034,167.059 285.034,157.523C285.034,147.987 292.766,140.23 302.272,140.23C311.78,140.23 319.512,147.985 319.512,157.523C319.512,167.061 311.78,174.822 302.272,174.822ZM111.728,174.822C102.222,174.822 94.49,167.059 94.49,157.523C94.49,147.987 102.221,140.23 111.728,140.23C121.233,140.23 128.966,147.985 128.966,157.523C128.966,167.061 121.235,174.822 111.728,174.822ZM308.456,70.645L342.91,10.783C343.858,9.13 344.114,7.168 343.622,5.327C343.13,3.485 341.93,1.915 340.286,0.96C338.638,0.009 336.682,-0.248 334.848,0.245C333.012,0.739 331.446,1.942 330.494,3.592L295.61,64.212C268.93,51.999 238.97,45.195 207,45.195C175.03,45.195 145.069,51.999 118.392,64.212L83.506,3.592C82.554,1.942 80.988,0.739 79.153,0.245C77.317,-0.248 75.362,0.009 73.715,0.96C72.069,1.914 70.868,3.485 70.376,5.326C69.884,7.168 70.141,9.131 71.091,10.783L105.545,70.645C46.383,102.926 5.92,163.012 0,234L414,234C408.076,163.013 367.612,102.927 308.456,70.645Z" fill="#B8B8B8" fill-opacity="0.05"/>
</svg>
