<svg width="128" height="57" viewBox="0 0 128 57" fill="none" xmlns="http://www.w3.org/2000/svg">
<path d="M86.2031 33.457L86.7129 32.1914H91.0371L91.5469 33.457H86.2031ZM85.2188 35.9883L85.7109 34.7227H92.0215L92.5664 35.9883H85.2188ZM84.2344 38.5195L84.7266 37.2539H93.0234L93.5508 38.5195H84.2344ZM73.9512 42H72.5801L84.0938 12.8906H85.4648L96.9609 42H95.6074L84.7793 14.5957L73.9512 42ZM84.9375 17.6016L85.6582 19.2188L76.6582 42H75.3047L84.9375 17.6016ZM86.3438 20.9414L87.0117 22.6816L79.4004 42H78.0293L86.3438 20.9414ZM87.6797 24.4219L88.3477 26.1973L82.1074 42H80.7539L87.6797 24.4219ZM105.135 42H103.764L92.2676 12.8906H93.6211L105.135 42ZM90.8965 12.8906L102.41 42H101.057L89.543 12.8906H90.8965ZM88.1719 12.8906L99.6855 42H98.3145L86.8184 12.8906H88.1719ZM106.787 14.1562V12.8906H125.771V14.1562H106.787ZM106.787 16.6875V15.4219H125.771V16.6875H106.787ZM106.787 19.2188V17.9531H125.771V19.2188H120.709V42H119.443V19.2188H118.178V42H116.912V19.2188H115.646V42H114.381V19.2188H113.115V42H111.85V19.2188H106.787Z" fill="white"/>
<path d="M48.8906 33.7422C50.1602 33.7422 51.2344 32.7656 51.2344 31.3984C51.2344 30.1289 50.1602 29.0547 48.8906 29.0547C47.6211 29.0547 46.5469 30.1289 46.5469 31.3984C46.5469 32.7656 47.6211 33.7422 48.8906 33.7422ZM23.0117 33.7422C24.2812 33.7422 25.3555 32.7656 25.3555 31.3984C25.3555 30.1289 24.2812 29.0547 23.0117 29.0547C21.7422 29.0547 20.668 30.1289 20.668 31.3984C20.668 32.7656 21.7422 33.7422 23.0117 33.7422ZM49.7695 19.6797C57.7773 24.0742 63.2461 32.1797 64.125 41.75H7.875C8.65625 32.1797 14.125 24.0742 22.1328 19.6797L17.4453 11.5742C17.3477 11.3789 17.3477 11.1836 17.3477 10.9883C17.3477 10.5 17.7383 10.0117 18.3242 10.0117C18.7148 10.0117 19.0078 10.3047 19.2031 10.5977L23.8906 18.8008C27.6016 17.1406 31.7031 16.2617 36 16.2617C40.2969 16.2617 44.3008 17.1406 48.0117 18.8008L52.6992 10.5977C52.8945 10.3047 53.1875 10.0117 53.5781 10.0117C54.1641 10.0117 54.5547 10.5 54.5547 10.9883C54.5547 11.1836 54.5547 11.3789 54.457 11.5742L49.7695 19.6797Z" fill="#4EFFEA"/>
</svg>
