<svg width="8" height="11" viewBox="0 0 8 11" fill="none" xmlns="http://www.w3.org/2000/svg">
<path d="M1.83333 11C2.84533 11 3.66667 10.1787 3.66667 9.16667V7.33333H1.83333C0.821333 7.33333 0 8.15467 0 9.16667C0 10.1787 0.821333 11 1.83333 11Z" fill="#0ACF83"/>
<path d="M0 5.5C0 4.488 0.821333 3.66667 1.83333 3.66667H3.66667V7.33333H1.83333C0.821333 7.33333 0 6.512 0 5.5Z" fill="#A259FF"/>
<path d="M0 1.83333C0 0.821333 0.821333 0 1.83333 0H3.66667V3.66667H1.83333C0.821333 3.66667 0 2.84533 0 1.83333Z" fill="#F24E1E"/>
<path d="M3.66667 0H5.5C6.512 0 7.33333 0.821333 7.33333 1.83333C7.33333 2.84533 6.512 3.66667 5.5 3.66667H3.66667V0Z" fill="#FF7262"/>
<path d="M7.33333 5.5C7.33333 6.512 6.512 7.33333 5.5 7.33333C4.488 7.33333 3.66667 6.512 3.66667 5.5C3.66667 4.488 4.488 3.66667 5.5 3.66667C6.512 3.66667 7.33333 4.488 7.33333 5.5Z" fill="#1ABCFE"/>
</svg>
