<svg width="24" height="24" viewBox="0 0 24 24" fill="none" xmlns="http://www.w3.org/2000/svg">
<path fill-rule="evenodd" clip-rule="evenodd" d="M6.40344 15.3396C5.49975 16.7283 5.89294 18.5866 7.28165 19.4903C8.67036 20.394 10.5287 20.0008 11.4324 18.6121L13.0687 16.0976C13.3699 15.6347 13.9894 15.5037 14.4523 15.8049C14.9152 16.1061 15.0462 16.7256 14.745 17.1885L13.1087 19.703C11.6026 22.0175 8.50531 22.6728 6.1908 21.1666C3.87628 19.6605 3.22097 16.5632 4.72712 14.2487L6.3634 11.7342C6.66463 11.2713 7.28408 11.1403 7.74698 11.4415C8.20988 11.7427 8.34094 12.3622 8.03972 12.8251L6.40344 15.3396ZM9.46335 16.1377C9.00044 15.8365 8.86938 15.217 9.17061 14.7541L13.534 8.04882C13.8352 7.58592 14.4547 7.45485 14.9176 7.75608C15.3805 8.05731 15.5116 8.67677 15.2103 9.13967L10.8469 15.8449C10.5457 16.3079 9.92625 16.4389 9.46335 16.1377ZM9.63594 6.70528C9.33471 7.16819 9.46577 7.78764 9.92868 8.08887C10.3916 8.3901 11.011 8.25903 11.3123 7.79613L12.9485 5.28165C13.8522 3.89294 15.7106 3.49976 17.0993 4.40344C18.488 5.30713 18.8812 7.16549 17.9775 8.5542L16.3412 11.0687C16.04 11.5316 16.1711 12.151 16.634 12.4523C17.0969 12.7535 17.7163 12.6224 18.0175 12.1595L19.6538 9.64505C21.16 7.33053 20.5047 4.23327 18.1901 2.72712C15.8756 1.22098 12.7784 1.87629 11.2722 4.1908L9.63594 6.70528Z" fill="white"/>
</svg>
