<svg width="192" height="213" viewBox="0 0 192 213" fill="none" xmlns="http://www.w3.org/2000/svg">
<path d="M107.514 7.04102V1" stroke="#4EFFEA" stroke-opacity="0.28" stroke-width="2" stroke-linecap="round" stroke-linejoin="round"/>
<path d="M111.179 4.39795H104.663" stroke="#4EFFEA" stroke-opacity="0.28" stroke-width="2" stroke-linecap="round" stroke-linejoin="round"/>
<path fill-rule="evenodd" clip-rule="evenodd" d="M138.517 123.952C138.518 124.696 138.2 125.41 137.633 125.936C137.066 126.463 136.296 126.759 135.494 126.76C135.096 126.759 134.703 126.686 134.336 126.545C133.969 126.404 133.636 126.196 133.355 125.936C133.075 125.675 132.852 125.365 132.701 125.025C132.549 124.684 132.471 124.319 132.472 123.951C132.471 123.207 132.789 122.494 133.356 121.967C133.923 121.441 134.691 121.144 135.494 121.143C136.296 121.144 137.066 121.44 137.633 121.967C138.2 122.494 138.518 123.208 138.517 123.952Z" stroke="#4EFFEA" stroke-opacity="0.28" stroke-width="2" stroke-linecap="round" stroke-linejoin="round"/>
<path d="M15.302 139.168C15.302 129.401 23.8257 121.484 34.3393 121.484C44.8545 121.484 53.3774 129.401 53.3774 139.168C53.3774 145.456 49.8424 150.978 44.5189 154.113" stroke="#4EFFEA" stroke-opacity="0.28" stroke-width="2" stroke-linecap="round" stroke-linejoin="round"/>
<path d="M47.72 126.687C55.2151 133.649 55.2151 144.936 47.72 151.897C41.7237 157.467 32.0026 157.467 26.0071 151.897C21.2097 147.442 21.2097 140.218 26.0071 135.763C29.8434 132.199 36.0662 132.199 39.9033 135.763C42.9731 138.614 42.9731 143.237 39.9033 146.089" stroke="#4EFFEA" stroke-opacity="0.28" stroke-width="2" stroke-linecap="round" stroke-linejoin="round"/>
<path d="M65.2258 147.187C67.2416 146.27 69.4575 145.795 71.7027 145.797C79.8501 145.797 86.4541 151.933 86.4541 159.5C86.4541 167.067 79.8501 173.202 71.7027 173.202C66.5771 173.202 62.0623 170.774 59.4193 167.088" stroke="#4EFFEA" stroke-opacity="0.28" stroke-width="2" stroke-linecap="round" stroke-linejoin="round"/>
<path d="M53.5574 138.969C54.4134 138.731 55.3025 138.61 56.1963 138.611C61.2462 138.611 65.3391 142.414 65.3391 147.106" stroke="#4EFFEA" stroke-opacity="0.28" stroke-width="2" stroke-linecap="round" stroke-linejoin="round"/>
<path d="M81.937 169.298C76.2363 174.592 66.9934 174.592 61.2927 169.298C56.7332 165.062 56.7332 158.194 61.2927 153.957C64.9417 150.568 70.8574 150.568 74.5055 153.957C77.4247 156.668 77.4247 161.065 74.5055 163.776" stroke="#4EFFEA" stroke-opacity="0.28" stroke-width="2" stroke-linecap="round" stroke-linejoin="round"/>
<path d="M59.1653 166.857C55.6288 173.679 48.1166 178.387 39.4194 178.387C31.733 178.387 24.971 174.71 21.0623 169.144" stroke="#4EFFEA" stroke-opacity="0.28" stroke-width="2" stroke-linecap="round" stroke-linejoin="round"/>
<path d="M20.768 169.154C17.9303 173.695 12.6385 176.749 6.57867 176.749C0.0415007 176.749 -5.60134 173.195 -8.23462 168.054" stroke="#4EFFEA" stroke-opacity="0.28" stroke-width="2" stroke-linecap="round" stroke-linejoin="round"/>
<path d="M18.1501 172.222C11.6952 178.217 1.23056 178.217 -5.22435 172.222C-10.3883 167.426 -10.3883 159.649 -5.22435 154.854C-1.09321 151.016 5.60442 151.016 9.73556 154.854C13.0408 157.923 13.0408 162.9 9.73556 165.969C9.1076 166.553 8.36149 167.017 7.54001 167.333C6.71852 167.649 5.8378 167.812 4.94834 167.812C4.05888 167.812 3.17816 167.649 2.35667 167.333C1.53518 167.017 0.789075 166.553 0.161119 165.969C-0.854773 165.025 -1.42529 163.746 -1.42529 162.412C-1.42529 161.079 -0.854773 159.799 0.161119 158.855" stroke="#4EFFEA" stroke-opacity="0.28" stroke-width="2" stroke-linecap="round" stroke-linejoin="round"/>
<path d="M-11.0013 145.882C-7.93068 140.355 -1.72338 136.577 5.43362 136.577C8.85535 136.572 12.2105 137.453 15.1213 139.121" stroke="#4EFFEA" stroke-opacity="0.28" stroke-width="2" stroke-linecap="round" stroke-linejoin="round"/>
<path d="M118.942 102.845C118.962 103.484 118.971 104.125 118.971 104.769C118.971 128.396 106.028 149.214 86.3704 161.443" stroke="#4EFFEA" stroke-opacity="0.28" stroke-width="2" stroke-linecap="round" stroke-linejoin="round"/>
<path d="M-4.86587 153.392C-18.986 140.969 -27.794 123.388 -27.794 103.897C-27.794 66.2521 5.05962 35.7358 45.5875 35.7358C61.9507 35.7358 77.0646 40.7121 89.269 49.122" stroke="#4EFFEA" stroke-opacity="0.28" stroke-width="2" stroke-linecap="round" stroke-linejoin="round"/>
<path d="M137.637 49.104H151.972C157.159 49.104 161.365 53.0088 161.365 57.828C161.365 62.6457 157.159 66.5505 151.972 66.5505H137.637C132.452 66.5505 128.246 70.4575 128.246 75.2745C128.246 80.0922 132.452 83.9985 137.637 83.9985H181.61C186.795 83.9985 191 87.9047 191 92.7217C191 97.5394 186.795 101.446 181.61 101.446H98.279C93.0923 101.446 88.8878 97.5394 88.8878 92.7217C88.8878 87.904 93.0923 83.9985 98.279 83.9985" stroke="#7E7E7E" stroke-width="2" stroke-linecap="round" stroke-linejoin="round"/>
<path d="M107.177 83.9978C112.364 83.9978 116.57 80.0937 116.57 75.2738C116.57 70.456 112.364 66.5505 107.177 66.5505H75.5417C70.3533 66.5505 66.1489 62.645 66.1489 57.8265C66.1489 53.0088 70.3541 49.1025 75.5417 49.1025H118.691" stroke="#7E7E7E" stroke-width="2" stroke-linecap="round" stroke-linejoin="round"/>
<path d="M126.972 46.5537L121.565 51.4047" stroke="#7E7E7E" stroke-width="2" stroke-linecap="round" stroke-linejoin="round"/>
<path d="M134.563 46.5537L129.156 51.4047" stroke="#7E7E7E" stroke-width="2" stroke-linecap="round" stroke-linejoin="round"/>
<path d="M6.41024 176.774H-81.4384" stroke="#7E7E7E" stroke-width="2" stroke-linecap="round" stroke-linejoin="round"/>
</svg>
